<svg xmlns="http://www.w3.org/2000/svg" version="1.1" xmlns:xlink="http://www.w3.org/1999/xlink" xmlns:svgjs="http://svgjs.com/svgjs" width="1800" height="700" preserveAspectRatio="none" viewBox="0 0 1800 700"><g mask="url(&quot;#SvgjsMask2915&quot;)" fill="none"><rect width="1800" height="700" x="0" y="0" fill="url(#SvgjsLinearGradient2916)"></rect><path d="M2091.35 232.5C1880.12 234.34 1691.37 451.16 1274.75 449.5 858.14 447.84 702.82-74.17 458.16-98.82" stroke="rgba(231, 0, 255, 1)" stroke-width="2"></path><path d="M1879.2 147.79C1698.29 152.96 1464.1 421.48 1208.73 420.79 953.35 420.1 1004.28 20.69 873.49-31.08" stroke="rgba(231, 0, 255, 1)" stroke-width="2"></path><path d="M2088.2 300.62C1952.84 305.78 1854.16 528.6 1594.81 524.62 1335.47 520.64 1278.27 29.85 1101.43-19.89" stroke="rgba(231, 0, 255, 1)" stroke-width="2"></path><path d="M1861.61 159.02C1686.47 161.73 1452.71 377.82 1195.43 376.02 938.15 374.22 994.03-32.39 862.34-87.18" stroke="rgba(231, 0, 255, 1)" stroke-width="2"></path><path d="M1817.76 569.28C1666.83 569.05 1519.09 481.78 1220.42 481.78 921.75 481.78 948.82 580.51 623.08 569.28 297.34 558.05 233.04 10.23 25.74-40.21" stroke="rgba(231, 0, 255, 1)" stroke-width="2"></path></g><defs><mask id="SvgjsMask2915"><rect width="1800" height="700" fill="#ffffff"></rect></mask><linearGradient x1="15.28%" y1="-39.29%" x2="84.72%" y2="139.29%" gradientUnits="userSpaceOnUse" id="SvgjsLinearGradient2916"><stop stop-color="rgba(98, 0, 158, 0.79)" offset="0.26"></stop><stop stop-color="rgba(114, 0, 158, 1)" offset="1"></stop></linearGradient></defs></svg>