<svg xmlns="http://www.w3.org/2000/svg" version="1.1" xmlns:xlink="http://www.w3.org/1999/xlink" xmlns:svgjs="http://svgjs.com/svgjs" width="1440" height="560" preserveAspectRatio="none" viewBox="0 0 1440 560"><g mask="url(&quot;#SvgjsMask1026&quot;)" fill="none"><rect width="1440" height="560" x="0" y="0" fill="rgba(0, 0, 0, 1)"></rect><path d="M1046 227L865 408" stroke-width="6" stroke="url(#SvgjsLinearGradient1027)" stroke-linecap="round" class="TopRight"></path><path d="M329 322L576 75" stroke-width="6" stroke="url(#SvgjsLinearGradient1028)" stroke-linecap="round" class="BottomLeft"></path><path d="M1282 503L960 825" stroke-width="10" stroke="url(#SvgjsLinearGradient1028)" stroke-linecap="round" class="BottomLeft"></path><path d="M434 357L54 737" stroke-width="10" stroke="url(#SvgjsLinearGradient1027)" stroke-linecap="round" class="TopRight"></path><path d="M845 349L597 597" stroke-width="8" stroke="url(#SvgjsLinearGradient1028)" stroke-linecap="round" class="BottomLeft"></path><path d="M637 476L405 708" stroke-width="8" stroke="url(#SvgjsLinearGradient1027)" stroke-linecap="round" class="TopRight"></path><path d="M524 426L734 216" stroke-width="8" stroke="url(#SvgjsLinearGradient1028)" stroke-linecap="round" class="BottomLeft"></path><path d="M540 471L325 686" stroke-width="10" stroke="url(#SvgjsLinearGradient1028)" stroke-linecap="round" class="BottomLeft"></path><path d="M1318 72L1676 -286" stroke-width="6" stroke="url(#SvgjsLinearGradient1027)" stroke-linecap="round" class="TopRight"></path><path d="M207 335L33 509" stroke-width="8" stroke="url(#SvgjsLinearGradient1027)" stroke-linecap="round" class="TopRight"></path><path d="M303 347L711 -61" stroke-width="8" stroke="url(#SvgjsLinearGradient1027)" stroke-linecap="round" class="TopRight"></path><path d="M928 385L647 666" stroke-width="8" stroke="url(#SvgjsLinearGradient1028)" stroke-linecap="round" class="BottomLeft"></path><path d="M1277 487L982 782" stroke-width="8" stroke="url(#SvgjsLinearGradient1028)" stroke-linecap="round" class="BottomLeft"></path><path d="M172 55L-242 469" stroke-width="10" stroke="url(#SvgjsLinearGradient1028)" stroke-linecap="round" class="BottomLeft"></path><path d="M268 241L417 92" stroke-width="6" stroke="url(#SvgjsLinearGradient1027)" stroke-linecap="round" class="TopRight"></path><path d="M781 309L541 549" stroke-width="8" stroke="url(#SvgjsLinearGradient1027)" stroke-linecap="round" class="TopRight"></path><path d="M1207 54L1355 -94" stroke-width="8" stroke="url(#SvgjsLinearGradient1028)" stroke-linecap="round" class="BottomLeft"></path><path d="M564 93L842 -185" stroke-width="8" stroke="url(#SvgjsLinearGradient1027)" stroke-linecap="round" class="TopRight"></path><path d="M37 77L250 -136" stroke-width="6" stroke="url(#SvgjsLinearGradient1028)" stroke-linecap="round" class="BottomLeft"></path><path d="M405 536L137 804" stroke-width="8" stroke="url(#SvgjsLinearGradient1028)" stroke-linecap="round" class="BottomLeft"></path><path d="M160 369L-243 772" stroke-width="8" stroke="url(#SvgjsLinearGradient1027)" stroke-linecap="round" class="TopRight"></path><path d="M1299 74L1016 357" stroke-width="8" stroke="url(#SvgjsLinearGradient1027)" stroke-linecap="round" class="TopRight"></path><path d="M787 377L932 232" stroke-width="8" stroke="url(#SvgjsLinearGradient1028)" stroke-linecap="round" class="BottomLeft"></path><path d="M1021 237L1178 80" stroke-width="8" stroke="url(#SvgjsLinearGradient1027)" stroke-linecap="round" class="TopRight"></path><path d="M671 255L1088 -162" stroke-width="10" stroke="url(#SvgjsLinearGradient1028)" stroke-linecap="round" class="BottomLeft"></path><path d="M672 352L1062 -38" stroke-width="8" stroke="url(#SvgjsLinearGradient1028)" stroke-linecap="round" class="BottomLeft"></path><path d="M1042 477L1378 141" stroke-width="8" stroke="url(#SvgjsLinearGradient1028)" stroke-linecap="round" class="BottomLeft"></path><path d="M168 58L559 -333" stroke-width="6" stroke="url(#SvgjsLinearGradient1027)" stroke-linecap="round" class="TopRight"></path><path d="M1160 56L741 475" stroke-width="10" stroke="url(#SvgjsLinearGradient1027)" stroke-linecap="round" class="TopRight"></path><path d="M644 444L1025 63" stroke-width="6" stroke="url(#SvgjsLinearGradient1028)" stroke-linecap="round" class="BottomLeft"></path><path d="M1119 274L792 601" stroke-width="10" stroke="url(#SvgjsLinearGradient1027)" stroke-linecap="round" class="TopRight"></path><path d="M1240 526L1626 140" stroke-width="10" stroke="url(#SvgjsLinearGradient1028)" stroke-linecap="round" class="BottomLeft"></path><path d="M1180 331L851 660" stroke-width="8" stroke="url(#SvgjsLinearGradient1027)" stroke-linecap="round" class="TopRight"></path><path d="M1185 46L774 457" stroke-width="6" stroke="url(#SvgjsLinearGradient1027)" stroke-linecap="round" class="TopRight"></path><path d="M643 381L242 782" stroke-width="8" stroke="url(#SvgjsLinearGradient1027)" stroke-linecap="round" class="TopRight"></path><path d="M1234 231L945 520" stroke-width="10" stroke="url(#SvgjsLinearGradient1027)" stroke-linecap="round" class="TopRight"></path><path d="M365 259L628 -4" stroke-width="10" stroke="url(#SvgjsLinearGradient1028)" stroke-linecap="round" class="BottomLeft"></path><path d="M1285 501L951 835" stroke-width="8" stroke="url(#SvgjsLinearGradient1028)" stroke-linecap="round" class="BottomLeft"></path><path d="M272 136L50 358" stroke-width="6" stroke="url(#SvgjsLinearGradient1028)" stroke-linecap="round" class="BottomLeft"></path></g><defs><mask id="SvgjsMask1026"><rect width="1440" height="560" fill="#ffffff"></rect></mask><linearGradient x1="0%" y1="100%" x2="100%" y2="0%" id="SvgjsLinearGradient1027"><stop stop-color="rgba(75, 0, 158, 0)" offset="0"></stop><stop stop-color="rgba(75, 0, 158, 1)" offset="1"></stop></linearGradient><linearGradient x1="100%" y1="0%" x2="0%" y2="100%" id="SvgjsLinearGradient1028"><stop stop-color="rgba(75, 0, 158, 0)" offset="0"></stop><stop stop-color="rgba(75, 0, 158, 1)" offset="1"></stop></linearGradient></defs></svg>