<svg xmlns="http://www.w3.org/2000/svg" version="1.1" xmlns:xlink="http://www.w3.org/1999/xlink" xmlns:svgjs="http://svgjs.com/svgjs" width="1440" height="560" preserveAspectRatio="none" viewBox="0 0 1440 560"><g mask="url(&quot;#SvgjsMask2035&quot;)" fill="none"><rect width="1440" height="560" x="0" y="0" fill="url(#SvgjsLinearGradient2036)"></rect><path d="M107.17 109.51L172.13 147.01L172.13 222.01L107.17 259.51L42.22 222.01L42.22 147.01zM237.08 109.51L302.03 147.01L302.03 222.01L237.08 259.51L172.13 222.01L172.13 147.01zM237.08 334.51L302.03 372.01L302.03 447.01L237.08 484.51L172.13 447.01L172.13 372.01zM172.13 447.01L237.08 484.51L237.08 559.51L172.13 597.01L107.17 559.51L107.17 484.51zM302.03 222.01L366.99 259.51L366.99 334.51L302.03 372.01L237.08 334.51L237.08 259.51zM366.99 334.51L431.94 372.01L431.94 447.01L366.99 484.51L302.03 447.01L302.03 372.01zM366.99 559.51L431.94 597.01L431.94 672.01L366.99 709.51L302.03 672.01L302.03 597.01zM431.94 447.01L496.9 484.51L496.9 559.51L431.94 597.01L366.99 559.51L366.99 484.51zM561.85 447.01L626.8 484.51L626.8 559.51L561.85 597.01L496.9 559.51L496.9 484.51zM691.76 222.01L756.71 259.51L756.71 334.51L691.76 372.01L626.8 334.51L626.8 259.51zM821.66 -2.99L886.62 34.51L886.62 109.51L821.66 147.01L756.71 109.51L756.71 34.51zM886.62 109.51L951.57 147.01L951.57 222.01L886.62 259.51L821.66 222.01L821.66 147.01zM886.62 334.51L951.57 372.01L951.57 447.01L886.62 484.51L821.66 447.01L821.66 372.01zM951.57 -2.99L1016.53 34.51L1016.53 109.51L951.57 147.01L886.62 109.51L886.62 34.51zM1016.53 109.51L1081.48 147.01L1081.48 222.01L1016.53 259.51L951.57 222.01L951.57 147.01zM951.57 447.01L1016.53 484.51L1016.53 559.51L951.57 597.01L886.62 559.51L886.62 484.51zM1016.53 559.51L1081.48 597.01L1081.48 672.01L1016.53 709.51L951.57 672.01L951.57 597.01zM1081.48 -2.99L1146.43 34.51L1146.43 109.51L1081.48 147.01L1016.53 109.51L1016.53 34.51zM1276.34 109.51L1341.29 147.01L1341.29 222.01L1276.34 259.51L1211.39 222.01L1211.39 147.01zM1276.34 559.51L1341.29 597.01L1341.29 672.01L1276.34 709.51L1211.39 672.01L1211.39 597.01zM1406.25 559.51L1471.2 597.01L1471.2 672.01L1406.25 709.51L1341.3 672.01L1341.3 597.01zM1471.2 -2.99L1536.16 34.51L1536.16 109.51L1471.2 147.01L1406.25 109.51L1406.25 34.51zM1536.16 109.51L1601.11 147.01L1601.11 222.01L1536.16 259.51L1471.2 222.01L1471.2 147.01zM1536.16 559.51L1601.11 597.01L1601.11 672.01L1536.16 709.51L1471.2 672.01L1471.2 597.01z" stroke="rgba(75, 0, 158, 1)" stroke-width="2"></path><path d="M99.67 109.51 a7.5 7.5 0 1 0 15 0 a7.5 7.5 0 1 0 -15 0zM164.63 147.01 a7.5 7.5 0 1 0 15 0 a7.5 7.5 0 1 0 -15 0zM164.63 222.01 a7.5 7.5 0 1 0 15 0 a7.5 7.5 0 1 0 -15 0zM99.67 259.51 a7.5 7.5 0 1 0 15 0 a7.5 7.5 0 1 0 -15 0zM34.72 222.01 a7.5 7.5 0 1 0 15 0 a7.5 7.5 0 1 0 -15 0zM34.72 147.01 a7.5 7.5 0 1 0 15 0 a7.5 7.5 0 1 0 -15 0zM229.58 109.51 a7.5 7.5 0 1 0 15 0 a7.5 7.5 0 1 0 -15 0zM294.53 147.01 a7.5 7.5 0 1 0 15 0 a7.5 7.5 0 1 0 -15 0zM294.53 222.01 a7.5 7.5 0 1 0 15 0 a7.5 7.5 0 1 0 -15 0zM229.58 259.51 a7.5 7.5 0 1 0 15 0 a7.5 7.5 0 1 0 -15 0zM229.58 334.51 a7.5 7.5 0 1 0 15 0 a7.5 7.5 0 1 0 -15 0zM294.53 372.01 a7.5 7.5 0 1 0 15 0 a7.5 7.5 0 1 0 -15 0zM294.53 447.01 a7.5 7.5 0 1 0 15 0 a7.5 7.5 0 1 0 -15 0zM229.58 484.51 a7.5 7.5 0 1 0 15 0 a7.5 7.5 0 1 0 -15 0zM164.63 447.01 a7.5 7.5 0 1 0 15 0 a7.5 7.5 0 1 0 -15 0zM164.63 372.01 a7.5 7.5 0 1 0 15 0 a7.5 7.5 0 1 0 -15 0zM229.58 559.51 a7.5 7.5 0 1 0 15 0 a7.5 7.5 0 1 0 -15 0zM164.63 597.01 a7.5 7.5 0 1 0 15 0 a7.5 7.5 0 1 0 -15 0zM99.67 559.51 a7.5 7.5 0 1 0 15 0 a7.5 7.5 0 1 0 -15 0zM99.67 484.51 a7.5 7.5 0 1 0 15 0 a7.5 7.5 0 1 0 -15 0zM359.49 259.51 a7.5 7.5 0 1 0 15 0 a7.5 7.5 0 1 0 -15 0zM359.49 334.51 a7.5 7.5 0 1 0 15 0 a7.5 7.5 0 1 0 -15 0zM424.44 372.01 a7.5 7.5 0 1 0 15 0 a7.5 7.5 0 1 0 -15 0zM424.44 447.01 a7.5 7.5 0 1 0 15 0 a7.5 7.5 0 1 0 -15 0zM359.49 484.51 a7.5 7.5 0 1 0 15 0 a7.5 7.5 0 1 0 -15 0zM359.49 559.51 a7.5 7.5 0 1 0 15 0 a7.5 7.5 0 1 0 -15 0zM424.44 597.01 a7.5 7.5 0 1 0 15 0 a7.5 7.5 0 1 0 -15 0zM424.44 672.01 a7.5 7.5 0 1 0 15 0 a7.5 7.5 0 1 0 -15 0zM359.49 709.51 a7.5 7.5 0 1 0 15 0 a7.5 7.5 0 1 0 -15 0zM294.53 672.01 a7.5 7.5 0 1 0 15 0 a7.5 7.5 0 1 0 -15 0zM294.53 597.01 a7.5 7.5 0 1 0 15 0 a7.5 7.5 0 1 0 -15 0zM489.4 484.51 a7.5 7.5 0 1 0 15 0 a7.5 7.5 0 1 0 -15 0zM489.4 559.51 a7.5 7.5 0 1 0 15 0 a7.5 7.5 0 1 0 -15 0zM554.35 447.01 a7.5 7.5 0 1 0 15 0 a7.5 7.5 0 1 0 -15 0zM619.3 484.51 a7.5 7.5 0 1 0 15 0 a7.5 7.5 0 1 0 -15 0zM619.3 559.51 a7.5 7.5 0 1 0 15 0 a7.5 7.5 0 1 0 -15 0zM554.35 597.01 a7.5 7.5 0 1 0 15 0 a7.5 7.5 0 1 0 -15 0zM684.26 222.01 a7.5 7.5 0 1 0 15 0 a7.5 7.5 0 1 0 -15 0zM749.21 259.51 a7.5 7.5 0 1 0 15 0 a7.5 7.5 0 1 0 -15 0zM749.21 334.51 a7.5 7.5 0 1 0 15 0 a7.5 7.5 0 1 0 -15 0zM684.26 372.01 a7.5 7.5 0 1 0 15 0 a7.5 7.5 0 1 0 -15 0zM619.3 334.51 a7.5 7.5 0 1 0 15 0 a7.5 7.5 0 1 0 -15 0zM619.3 259.51 a7.5 7.5 0 1 0 15 0 a7.5 7.5 0 1 0 -15 0zM814.16 -2.99 a7.5 7.5 0 1 0 15 0 a7.5 7.5 0 1 0 -15 0zM879.12 34.51 a7.5 7.5 0 1 0 15 0 a7.5 7.5 0 1 0 -15 0zM879.12 109.51 a7.5 7.5 0 1 0 15 0 a7.5 7.5 0 1 0 -15 0zM814.16 147.01 a7.5 7.5 0 1 0 15 0 a7.5 7.5 0 1 0 -15 0zM749.21 109.51 a7.5 7.5 0 1 0 15 0 a7.5 7.5 0 1 0 -15 0zM749.21 34.51 a7.5 7.5 0 1 0 15 0 a7.5 7.5 0 1 0 -15 0zM944.07 147.01 a7.5 7.5 0 1 0 15 0 a7.5 7.5 0 1 0 -15 0zM944.07 222.01 a7.5 7.5 0 1 0 15 0 a7.5 7.5 0 1 0 -15 0zM879.12 259.51 a7.5 7.5 0 1 0 15 0 a7.5 7.5 0 1 0 -15 0zM814.16 222.01 a7.5 7.5 0 1 0 15 0 a7.5 7.5 0 1 0 -15 0zM879.12 334.51 a7.5 7.5 0 1 0 15 0 a7.5 7.5 0 1 0 -15 0zM944.07 372.01 a7.5 7.5 0 1 0 15 0 a7.5 7.5 0 1 0 -15 0zM944.07 447.01 a7.5 7.5 0 1 0 15 0 a7.5 7.5 0 1 0 -15 0zM879.12 484.51 a7.5 7.5 0 1 0 15 0 a7.5 7.5 0 1 0 -15 0zM814.16 447.01 a7.5 7.5 0 1 0 15 0 a7.5 7.5 0 1 0 -15 0zM814.16 372.01 a7.5 7.5 0 1 0 15 0 a7.5 7.5 0 1 0 -15 0zM944.07 -2.99 a7.5 7.5 0 1 0 15 0 a7.5 7.5 0 1 0 -15 0zM1009.03 34.51 a7.5 7.5 0 1 0 15 0 a7.5 7.5 0 1 0 -15 0zM1009.03 109.51 a7.5 7.5 0 1 0 15 0 a7.5 7.5 0 1 0 -15 0zM1073.98 147.01 a7.5 7.5 0 1 0 15 0 a7.5 7.5 0 1 0 -15 0zM1073.98 222.01 a7.5 7.5 0 1 0 15 0 a7.5 7.5 0 1 0 -15 0zM1009.03 259.51 a7.5 7.5 0 1 0 15 0 a7.5 7.5 0 1 0 -15 0zM1009.03 484.51 a7.5 7.5 0 1 0 15 0 a7.5 7.5 0 1 0 -15 0zM1009.03 559.51 a7.5 7.5 0 1 0 15 0 a7.5 7.5 0 1 0 -15 0zM944.07 597.01 a7.5 7.5 0 1 0 15 0 a7.5 7.5 0 1 0 -15 0zM879.12 559.51 a7.5 7.5 0 1 0 15 0 a7.5 7.5 0 1 0 -15 0zM1073.98 597.01 a7.5 7.5 0 1 0 15 0 a7.5 7.5 0 1 0 -15 0zM1073.98 672.01 a7.5 7.5 0 1 0 15 0 a7.5 7.5 0 1 0 -15 0zM1009.03 709.51 a7.5 7.5 0 1 0 15 0 a7.5 7.5 0 1 0 -15 0zM944.07 672.01 a7.5 7.5 0 1 0 15 0 a7.5 7.5 0 1 0 -15 0zM1073.98 -2.99 a7.5 7.5 0 1 0 15 0 a7.5 7.5 0 1 0 -15 0zM1138.93 34.51 a7.5 7.5 0 1 0 15 0 a7.5 7.5 0 1 0 -15 0zM1138.93 109.51 a7.5 7.5 0 1 0 15 0 a7.5 7.5 0 1 0 -15 0zM1268.84 109.51 a7.5 7.5 0 1 0 15 0 a7.5 7.5 0 1 0 -15 0zM1333.79 147.01 a7.5 7.5 0 1 0 15 0 a7.5 7.5 0 1 0 -15 0zM1333.79 222.01 a7.5 7.5 0 1 0 15 0 a7.5 7.5 0 1 0 -15 0zM1268.84 259.51 a7.5 7.5 0 1 0 15 0 a7.5 7.5 0 1 0 -15 0zM1203.89 222.01 a7.5 7.5 0 1 0 15 0 a7.5 7.5 0 1 0 -15 0zM1203.89 147.01 a7.5 7.5 0 1 0 15 0 a7.5 7.5 0 1 0 -15 0zM1268.84 559.51 a7.5 7.5 0 1 0 15 0 a7.5 7.5 0 1 0 -15 0zM1333.79 597.01 a7.5 7.5 0 1 0 15 0 a7.5 7.5 0 1 0 -15 0zM1333.79 672.01 a7.5 7.5 0 1 0 15 0 a7.5 7.5 0 1 0 -15 0zM1268.84 709.51 a7.5 7.5 0 1 0 15 0 a7.5 7.5 0 1 0 -15 0zM1203.89 672.01 a7.5 7.5 0 1 0 15 0 a7.5 7.5 0 1 0 -15 0zM1203.89 597.01 a7.5 7.5 0 1 0 15 0 a7.5 7.5 0 1 0 -15 0zM1398.75 559.51 a7.5 7.5 0 1 0 15 0 a7.5 7.5 0 1 0 -15 0zM1463.7 597.01 a7.5 7.5 0 1 0 15 0 a7.5 7.5 0 1 0 -15 0zM1463.7 672.01 a7.5 7.5 0 1 0 15 0 a7.5 7.5 0 1 0 -15 0zM1398.75 709.51 a7.5 7.5 0 1 0 15 0 a7.5 7.5 0 1 0 -15 0zM1333.8 672.01 a7.5 7.5 0 1 0 15 0 a7.5 7.5 0 1 0 -15 0zM1333.8 597.01 a7.5 7.5 0 1 0 15 0 a7.5 7.5 0 1 0 -15 0zM1463.7 -2.99 a7.5 7.5 0 1 0 15 0 a7.5 7.5 0 1 0 -15 0zM1528.66 34.51 a7.5 7.5 0 1 0 15 0 a7.5 7.5 0 1 0 -15 0zM1528.66 109.51 a7.5 7.5 0 1 0 15 0 a7.5 7.5 0 1 0 -15 0zM1463.7 147.01 a7.5 7.5 0 1 0 15 0 a7.5 7.5 0 1 0 -15 0zM1398.75 109.51 a7.5 7.5 0 1 0 15 0 a7.5 7.5 0 1 0 -15 0zM1398.75 34.51 a7.5 7.5 0 1 0 15 0 a7.5 7.5 0 1 0 -15 0zM1593.61 147.01 a7.5 7.5 0 1 0 15 0 a7.5 7.5 0 1 0 -15 0zM1593.61 222.01 a7.5 7.5 0 1 0 15 0 a7.5 7.5 0 1 0 -15 0zM1528.66 259.51 a7.5 7.5 0 1 0 15 0 a7.5 7.5 0 1 0 -15 0zM1463.7 222.01 a7.5 7.5 0 1 0 15 0 a7.5 7.5 0 1 0 -15 0zM1528.66 559.51 a7.5 7.5 0 1 0 15 0 a7.5 7.5 0 1 0 -15 0zM1593.61 597.01 a7.5 7.5 0 1 0 15 0 a7.5 7.5 0 1 0 -15 0zM1593.61 672.01 a7.5 7.5 0 1 0 15 0 a7.5 7.5 0 1 0 -15 0zM1528.66 709.51 a7.5 7.5 0 1 0 15 0 a7.5 7.5 0 1 0 -15 0z" fill="rgba(75, 0, 158, 1)"></path><path d="M110.98 121.27L154.28 146.27L154.28 196.27L110.98 221.27L67.67 196.27L67.67 146.27zM154.28 196.27L197.58 221.27L197.58 271.27L154.28 296.27L110.98 271.27L110.98 221.27zM154.28 496.27L197.58 521.27L197.58 571.27L154.28 596.27L110.98 571.27L110.98 521.27zM197.58 -28.73L240.88 -3.73L240.88 46.27L197.58 71.27L154.28 46.27L154.28 -3.73zM240.88 46.27L284.19 71.27L284.19 121.27L240.88 146.27L197.58 121.27L197.58 71.27zM197.58 121.27L240.88 146.27L240.88 196.27L197.58 221.27L154.28 196.27L154.28 146.27zM197.58 271.27L240.88 296.27L240.88 346.27L197.58 371.27L154.28 346.27L154.28 296.27zM240.88 496.27L284.19 521.27L284.19 571.27L240.88 596.27L197.58 571.27L197.58 521.27zM327.49 196.27L370.79 221.27L370.79 271.27L327.49 296.27L284.19 271.27L284.19 221.27zM284.19 271.27L327.49 296.27L327.49 346.27L284.19 371.27L240.88 346.27L240.88 296.27zM284.19 421.27L327.49 446.27L327.49 496.27L284.19 521.27L240.88 496.27L240.88 446.27zM370.79 -28.73L414.09 -3.73L414.09 46.27L370.79 71.27L327.49 46.27L327.49 -3.73zM370.79 121.27L414.09 146.27L414.09 196.27L370.79 221.27L327.49 196.27L327.49 146.27zM414.09 196.27L457.4 221.27L457.4 271.27L414.09 296.27L370.79 271.27L370.79 221.27zM370.79 421.27L414.09 446.27L414.09 496.27L370.79 521.27L327.49 496.27L327.49 446.27zM457.4 121.27L500.7 146.27L500.7 196.27L457.4 221.27L414.09 196.27L414.09 146.27zM457.4 271.27L500.7 296.27L500.7 346.27L457.4 371.27L414.09 346.27L414.09 296.27zM457.4 421.27L500.7 446.27L500.7 496.27L457.4 521.27L414.09 496.27L414.09 446.27zM500.7 496.27L544 521.27L544 571.27L500.7 596.27L457.4 571.27L457.4 521.27zM544 271.27L587.3 296.27L587.3 346.27L544 371.27L500.7 346.27L500.7 296.27zM587.3 346.27L630.61 371.27L630.61 421.27L587.3 446.27L544 421.27L544 371.27zM587.3 496.27L630.61 521.27L630.61 571.27L587.3 596.27L544 571.27L544 521.27zM673.91 46.27L717.21 71.27L717.21 121.27L673.91 146.27L630.61 121.27L630.61 71.27zM717.21 -28.73L760.51 -3.73L760.51 46.27L717.21 71.27L673.91 46.27L673.91 -3.73zM760.51 196.27L803.82 221.27L803.82 271.27L760.51 296.27L717.21 271.27L717.21 221.27zM717.21 421.27L760.51 446.27L760.51 496.27L717.21 521.27L673.91 496.27L673.91 446.27zM803.82 121.27L847.12 146.27L847.12 196.27L803.82 221.27L760.51 196.27L760.51 146.27zM847.12 196.27L890.42 221.27L890.42 271.27L847.12 296.27L803.82 271.27L803.82 221.27zM803.82 271.27L847.12 296.27L847.12 346.27L803.82 371.27L760.51 346.27L760.51 296.27zM847.12 346.27L890.42 371.27L890.42 421.27L847.12 446.27L803.82 421.27L803.82 371.27zM803.82 421.27L847.12 446.27L847.12 496.27L803.82 521.27L760.51 496.27L760.51 446.27zM890.42 -28.73L933.72 -3.73L933.72 46.27L890.42 71.27L847.12 46.27L847.12 -3.73zM933.72 46.27L977.03 71.27L977.03 121.27L933.72 146.27L890.42 121.27L890.42 71.27zM933.72 196.27L977.03 221.27L977.03 271.27L933.72 296.27L890.42 271.27L890.42 221.27zM890.42 271.27L933.72 296.27L933.72 346.27L890.42 371.27L847.12 346.27L847.12 296.27zM977.03 121.27L1020.33 146.27L1020.33 196.27L977.03 221.27L933.72 196.27L933.72 146.27zM1020.33 196.27L1063.63 221.27L1063.63 271.27L1020.33 296.27L977.03 271.27L977.03 221.27zM977.03 271.27L1020.33 296.27L1020.33 346.27L977.03 371.27L933.72 346.27L933.72 296.27zM1020.33 496.27L1063.63 521.27L1063.63 571.27L1020.33 596.27L977.03 571.27L977.03 521.27zM1106.93 46.27L1150.23 71.27L1150.23 121.27L1106.93 146.27L1063.63 121.27L1063.63 71.27zM1106.93 196.27L1150.23 221.27L1150.23 271.27L1106.93 296.27L1063.63 271.27L1063.63 221.27zM1106.93 346.27L1150.23 371.27L1150.23 421.27L1106.93 446.27L1063.63 421.27L1063.63 371.27zM1150.23 -28.73L1193.54 -3.73L1193.54 46.27L1150.23 71.27L1106.93 46.27L1106.93 -3.73zM1193.54 196.27L1236.84 221.27L1236.84 271.27L1193.54 296.27L1150.23 271.27L1150.23 221.27zM1193.54 346.27L1236.84 371.27L1236.84 421.27L1193.54 446.27L1150.23 421.27L1150.23 371.27zM1280.14 46.27L1323.44 71.27L1323.44 121.27L1280.14 146.27L1236.84 121.27L1236.84 71.27zM1236.84 271.27L1280.14 296.27L1280.14 346.27L1236.84 371.27L1193.54 346.27L1193.54 296.27zM1280.14 496.27L1323.44 521.27L1323.44 571.27L1280.14 596.27L1236.84 571.27L1236.84 521.27zM1323.44 -28.73L1366.75 -3.73L1366.75 46.27L1323.44 71.27L1280.14 46.27L1280.14 -3.73zM1366.75 46.27L1410.05 71.27L1410.05 121.27L1366.75 146.27L1323.44 121.27L1323.44 71.27zM1323.44 421.27L1366.75 446.27L1366.75 496.27L1323.44 521.27L1280.14 496.27L1280.14 446.27zM1366.75 496.27L1410.05 521.27L1410.05 571.27L1366.75 596.27L1323.44 571.27L1323.44 521.27zM1453.35 46.27L1496.65 71.27L1496.65 121.27L1453.35 146.27L1410.05 121.27L1410.05 71.27zM1410.05 121.27L1453.35 146.27L1453.35 196.27L1410.05 221.27L1366.75 196.27L1366.75 146.27zM1453.35 196.27L1496.65 221.27L1496.65 271.27L1453.35 296.27L1410.05 271.27L1410.05 221.27zM1410.05 271.27L1453.35 296.27L1453.35 346.27L1410.05 371.27L1366.75 346.27L1366.75 296.27zM1453.35 346.27L1496.65 371.27L1496.65 421.27L1453.35 446.27L1410.05 421.27L1410.05 371.27z" stroke="url(#SvgjsLinearGradient2037)" stroke-width="2"></path></g><defs><mask id="SvgjsMask2035"><rect width="1440" height="560" fill="#ffffff"></rect></mask><linearGradient x1="15.28%" y1="-39.29%" x2="84.72%" y2="139.29%" gradientUnits="userSpaceOnUse" id="SvgjsLinearGradient2036"><stop stop-color="#0e2a47" offset="0"></stop><stop stop-color="rgba(0, 0, 0, 1)" offset="1"></stop></linearGradient><linearGradient x1="220.03199999999998" y1="-220.02399999999997" x2="1219.9679999999998" y2="780.024" gradientUnits="userSpaceOnUse" id="SvgjsLinearGradient2037"><stop stop-color="#0e2a47" offset="0"></stop><stop stop-color="rgba(73, 3, 104, 1)" offset="1"></stop></linearGradient></defs></svg>