<svg xmlns="http://www.w3.org/2000/svg" version="1.1" xmlns:xlink="http://www.w3.org/1999/xlink" xmlns:svgjs="http://svgjs.com/svgjs" width="1440" height="560" preserveAspectRatio="none" viewBox="0 0 1440 560"><g mask="url(&quot;#SvgjsMask2766&quot;)" fill="none"><rect width="1440" height="560" x="0" y="0" fill="url(#SvgjsLinearGradient2767)"></rect><g mask="url(&quot;#SvgjsMask2768&quot;)"><path d="M1106 406L1442 70L1442 14" stroke-width="4.67" stroke="rgba(75, 0, 158, 1)"></path><path d="M1099 406 a7 7 0 1 0 14 0 a7 7 0 1 0 -14 0zM1435 14 a7 7 0 1 0 14 0 a7 7 0 1 0 -14 0z" fill="rgba(75, 0, 158, 1)"></path><path d="M322 14L854 14" stroke-width="4.67" stroke="rgba(75, 0, 158, 1)"></path><path d="M315 14 a7 7 0 1 0 14 0 a7 7 0 1 0 -14 0zM847 14 a7 7 0 1 0 14 0 a7 7 0 1 0 -14 0z" fill="rgba(75, 0, 158, 1)"></path><path d="M210 266L14 70L14 14" stroke-width="4.67" stroke="rgba(75, 0, 158, 1)"></path><path d="M203 266 a7 7 0 1 0 14 0 a7 7 0 1 0 -14 0zM7 14 a7 7 0 1 0 14 0 a7 7 0 1 0 -14 0z" fill="rgba(75, 0, 158, 1)"></path><path d="M686 98L742 42L854 42L1134 322L1134 350L1078 406" stroke-width="4.67" stroke="rgba(75, 0, 158, 1)"></path><path d="M679 98 a7 7 0 1 0 14 0 a7 7 0 1 0 -14 0zM1071 406 a7 7 0 1 0 14 0 a7 7 0 1 0 -14 0z" fill="rgba(75, 0, 158, 1)"></path><path d="M1386 462L1442 406L1442 98" stroke-width="4.67" stroke="rgba(75, 0, 158, 1)"></path><path d="M1379 462 a7 7 0 1 0 14 0 a7 7 0 1 0 -14 0zM1435 98 a7 7 0 1 0 14 0 a7 7 0 1 0 -14 0z" fill="rgba(75, 0, 158, 1)"></path><path d="M294 238L462 238L658 42L714 42" stroke-width="4.67" stroke="rgba(75, 0, 158, 1)"></path><path d="M287 238 a7 7 0 1 0 14 0 a7 7 0 1 0 -14 0zM707 42 a7 7 0 1 0 14 0 a7 7 0 1 0 -14 0z" fill="rgba(75, 0, 158, 1)"></path><path d="M210 322L154 266L154 238L14 98" stroke-width="4.67" stroke="rgba(75, 0, 158, 1)"></path><path d="M203 322 a7 7 0 1 0 14 0 a7 7 0 1 0 -14 0zM7 98 a7 7 0 1 0 14 0 a7 7 0 1 0 -14 0z" fill="rgba(75, 0, 158, 1)"></path><path d="M994 98L994 154L1134 294L1190 294L1414 70L1414 14" stroke-width="4.67" stroke="rgba(75, 0, 158, 1)"></path><path d="M987 98 a7 7 0 1 0 14 0 a7 7 0 1 0 -14 0zM1407 14 a7 7 0 1 0 14 0 a7 7 0 1 0 -14 0z" fill="rgba(75, 0, 158, 1)"></path><path d="M434 210L266 42L266 14" stroke-width="4.67" stroke="rgba(75, 0, 158, 1)"></path><path d="M427 210 a7 7 0 1 0 14 0 a7 7 0 1 0 -14 0zM259 14 a7 7 0 1 0 14 0 a7 7 0 1 0 -14 0z" fill="rgba(75, 0, 158, 1)"></path><path d="M770 182L770 266L574 462L518 462L322 266" stroke-width="4.67" stroke="rgba(75, 0, 158, 1)"></path><path d="M763 182 a7 7 0 1 0 14 0 a7 7 0 1 0 -14 0zM315 266 a7 7 0 1 0 14 0 a7 7 0 1 0 -14 0z" fill="rgba(75, 0, 158, 1)"></path><path d="M910 406L798 518L602 518L574 490L406 490L378 518" stroke-width="4.67" stroke="rgba(75, 0, 158, 1)"></path><path d="M903 406 a7 7 0 1 0 14 0 a7 7 0 1 0 -14 0zM371 518 a7 7 0 1 0 14 0 a7 7 0 1 0 -14 0z" fill="rgba(75, 0, 158, 1)"></path><path d="M1218 322L1414 518L1442 518" stroke-width="4.67" stroke="rgba(75, 0, 158, 1)"></path><path d="M1211 322 a7 7 0 1 0 14 0 a7 7 0 1 0 -14 0zM1435 518 a7 7 0 1 0 14 0 a7 7 0 1 0 -14 0z" fill="rgba(75, 0, 158, 1)"></path><path d="M1190 210L1190 266" stroke-width="4.67" stroke="rgba(75, 0, 158, 1)"></path><path d="M1183 210 a7 7 0 1 0 14 0 a7 7 0 1 0 -14 0zM1183 266 a7 7 0 1 0 14 0 a7 7 0 1 0 -14 0z" fill="rgba(75, 0, 158, 1)"></path><path d="M546 210L686 70" stroke-width="4.67" stroke="rgba(75, 0, 158, 1)"></path><path d="M539 210 a7 7 0 1 0 14 0 a7 7 0 1 0 -14 0zM679 70 a7 7 0 1 0 14 0 a7 7 0 1 0 -14 0z" fill="rgba(75, 0, 158, 1)"></path><path d="M462 98L406 154" stroke-width="4.67" stroke="rgba(75, 0, 158, 1)"></path><path d="M455 98 a7 7 0 1 0 14 0 a7 7 0 1 0 -14 0zM399 154 a7 7 0 1 0 14 0 a7 7 0 1 0 -14 0z" fill="rgba(75, 0, 158, 1)"></path><path d="M266 154L350 154L406 210" stroke-width="4.67" stroke="rgba(75, 0, 158, 1)"></path><path d="M259 154 a7 7 0 1 0 14 0 a7 7 0 1 0 -14 0zM399 210 a7 7 0 1 0 14 0 a7 7 0 1 0 -14 0z" fill="rgba(75, 0, 158, 1)"></path><path d="M1386 406L1414 378L1414 126" stroke-width="4.67" stroke="rgba(75, 0, 158, 1)"></path><path d="M1379 406 a7 7 0 1 0 14 0 a7 7 0 1 0 -14 0zM1407 126 a7 7 0 1 0 14 0 a7 7 0 1 0 -14 0z" fill="rgba(75, 0, 158, 1)"></path><path d="M826 378L854 406L854 434L798 490L602 490" stroke-width="4.67" stroke="rgba(75, 0, 158, 1)"></path><path d="M819 378 a7 7 0 1 0 14 0 a7 7 0 1 0 -14 0zM595 490 a7 7 0 1 0 14 0 a7 7 0 1 0 -14 0z" fill="rgba(75, 0, 158, 1)"></path><path d="M630 154L938 154L1022 238L1022 378" stroke-width="4.67" stroke="rgba(75, 0, 158, 1)"></path><path d="M623 154 a7 7 0 1 0 14 0 a7 7 0 1 0 -14 0zM1015 378 a7 7 0 1 0 14 0 a7 7 0 1 0 -14 0z" fill="rgba(75, 0, 158, 1)"></path><path d="M14 238L70 182" stroke-width="4.67" stroke="rgba(75, 0, 158, 1)"></path><path d="M7 238 a7 7 0 1 0 14 0 a7 7 0 1 0 -14 0zM63 182 a7 7 0 1 0 14 0 a7 7 0 1 0 -14 0z" fill="rgba(75, 0, 158, 1)"></path><path d="M126 98L42 14" stroke-width="4.67" stroke="rgba(75, 0, 158, 1)"></path><path d="M119 98 a7 7 0 1 0 14 0 a7 7 0 1 0 -14 0zM35 14 a7 7 0 1 0 14 0 a7 7 0 1 0 -14 0z" fill="rgba(75, 0, 158, 1)"></path><path d="M938 378L994 322L994 238L938 182L798 182" stroke-width="4.67" stroke="rgba(75, 0, 158, 1)"></path><path d="M931 378 a7 7 0 1 0 14 0 a7 7 0 1 0 -14 0zM791 182 a7 7 0 1 0 14 0 a7 7 0 1 0 -14 0z" fill="rgba(75, 0, 158, 1)"></path><path d="M1274 546L1134 406" stroke-width="4.67" stroke="rgba(75, 0, 158, 1)"></path><path d="M1267 546 a7 7 0 1 0 14 0 a7 7 0 1 0 -14 0zM1127 406 a7 7 0 1 0 14 0 a7 7 0 1 0 -14 0z" fill="rgba(75, 0, 158, 1)"></path><path d="M1274 518L1302 546L1442 546" stroke-width="4.67" stroke="rgba(75, 0, 158, 1)"></path><path d="M1267 518 a7 7 0 1 0 14 0 a7 7 0 1 0 -14 0zM1435 546 a7 7 0 1 0 14 0 a7 7 0 1 0 -14 0z" fill="rgba(75, 0, 158, 1)"></path><path d="M322 378L406 462L490 462" stroke-width="4.67" stroke="rgba(75, 0, 158, 1)"></path><path d="M315 378 a7 7 0 1 0 14 0 a7 7 0 1 0 -14 0zM483 462 a7 7 0 1 0 14 0 a7 7 0 1 0 -14 0z" fill="rgba(75, 0, 158, 1)"></path><path d="M70 266L98 266L126 238" stroke-width="4.67" stroke="rgba(75, 0, 158, 1)"></path><path d="M63 266 a7 7 0 1 0 14 0 a7 7 0 1 0 -14 0zM119 238 a7 7 0 1 0 14 0 a7 7 0 1 0 -14 0z" fill="rgba(75, 0, 158, 1)"></path><path d="M294 434L126 266" stroke-width="4.67" stroke="rgba(75, 0, 158, 1)"></path><path d="M287 434 a7 7 0 1 0 14 0 a7 7 0 1 0 -14 0zM119 266 a7 7 0 1 0 14 0 a7 7 0 1 0 -14 0z" fill="rgba(75, 0, 158, 1)"></path><path d="M210 154L182 126L182 14" stroke-width="4.67" stroke="rgba(75, 0, 158, 1)"></path><path d="M203 154 a7 7 0 1 0 14 0 a7 7 0 1 0 -14 0zM175 14 a7 7 0 1 0 14 0 a7 7 0 1 0 -14 0z" fill="rgba(75, 0, 158, 1)"></path><path d="M910 518L1050 378L1078 378L1106 350L1106 322L1050 266" stroke-width="4.67" stroke="rgba(75, 0, 158, 1)"></path><path d="M903 518 a7 7 0 1 0 14 0 a7 7 0 1 0 -14 0zM1043 266 a7 7 0 1 0 14 0 a7 7 0 1 0 -14 0z" fill="rgba(75, 0, 158, 1)"></path><path d="M462 378L350 266" stroke-width="4.67" stroke="rgba(75, 0, 158, 1)"></path><path d="M455 378 a7 7 0 1 0 14 0 a7 7 0 1 0 -14 0zM343 266 a7 7 0 1 0 14 0 a7 7 0 1 0 -14 0z" fill="rgba(75, 0, 158, 1)"></path><path d="M462 266L462 294L434 322" stroke-width="4.67" stroke="rgba(75, 0, 158, 1)"></path><path d="M455 266 a7 7 0 1 0 14 0 a7 7 0 1 0 -14 0zM427 322 a7 7 0 1 0 14 0 a7 7 0 1 0 -14 0z" fill="rgba(75, 0, 158, 1)"></path><path d="M798 462L714 378L714 350L854 210L938 210L966 238L966 322L882 406" stroke-width="4.67" stroke="rgba(75, 0, 158, 1)"></path><path d="M791 462 a7 7 0 1 0 14 0 a7 7 0 1 0 -14 0zM875 406 a7 7 0 1 0 14 0 a7 7 0 1 0 -14 0z" fill="rgba(75, 0, 158, 1)"></path><path d="M1162 70L1134 42L882 42" stroke-width="4.67" stroke="rgba(75, 0, 158, 1)"></path><path d="M1155 70 a7 7 0 1 0 14 0 a7 7 0 1 0 -14 0zM875 42 a7 7 0 1 0 14 0 a7 7 0 1 0 -14 0z" fill="rgba(75, 0, 158, 1)"></path><path d="M658 238L714 294" stroke-width="4.67" stroke="rgba(75, 0, 158, 1)"></path><path d="M651 238 a7 7 0 1 0 14 0 a7 7 0 1 0 -14 0zM707 294 a7 7 0 1 0 14 0 a7 7 0 1 0 -14 0z" fill="rgba(75, 0, 158, 1)"></path><path d="M490 518L406 518L378 546L14 546" stroke-width="4.67" stroke="rgba(75, 0, 158, 1)"></path><path d="M483 518 a7 7 0 1 0 14 0 a7 7 0 1 0 -14 0zM7 546 a7 7 0 1 0 14 0 a7 7 0 1 0 -14 0z" fill="rgba(75, 0, 158, 1)"></path><path d="M686 546L602 546L574 518L518 518L490 546L406 546" stroke-width="4.67" stroke="rgba(75, 0, 158, 1)"></path><path d="M679 546 a7 7 0 1 0 14 0 a7 7 0 1 0 -14 0zM399 546 a7 7 0 1 0 14 0 a7 7 0 1 0 -14 0z" fill="rgba(75, 0, 158, 1)"></path><path d="M126 350L70 406L70 518" stroke-width="4.67" stroke="rgba(75, 0, 158, 1)"></path><path d="M119 350 a7 7 0 1 0 14 0 a7 7 0 1 0 -14 0zM63 518 a7 7 0 1 0 14 0 a7 7 0 1 0 -14 0z" fill="rgba(75, 0, 158, 1)"></path><path d="M1246 70L1190 70L1078 182L1078 210L1134 266L1162 266" stroke-width="4.67" stroke="rgba(75, 0, 158, 1)"></path><path d="M1239 70 a7 7 0 1 0 14 0 a7 7 0 1 0 -14 0zM1155 266 a7 7 0 1 0 14 0 a7 7 0 1 0 -14 0z" fill="rgba(75, 0, 158, 1)"></path><path d="M462 154L518 154L630 42" stroke-width="4.67" stroke="rgba(75, 0, 158, 1)"></path><path d="M455 154 a7 7 0 1 0 14 0 a7 7 0 1 0 -14 0zM623 42 a7 7 0 1 0 14 0 a7 7 0 1 0 -14 0z" fill="rgba(75, 0, 158, 1)"></path><path d="M210 70L238 42L238 14" stroke-width="4.67" stroke="rgba(75, 0, 158, 1)"></path><path d="M203 70 a7 7 0 1 0 14 0 a7 7 0 1 0 -14 0zM231 14 a7 7 0 1 0 14 0 a7 7 0 1 0 -14 0z" fill="rgba(75, 0, 158, 1)"></path><path d="M658 322L546 434L518 434L490 406L490 238L518 210" stroke-width="4.67" stroke="rgba(75, 0, 158, 1)"></path><path d="M651 322 a7 7 0 1 0 14 0 a7 7 0 1 0 -14 0zM511 210 a7 7 0 1 0 14 0 a7 7 0 1 0 -14 0z" fill="rgba(75, 0, 158, 1)"></path><path d="M1274 406L1218 350L1190 350L1162 378L1162 406L1218 462L1330 462L1386 518" stroke-width="4.67" stroke="rgba(75, 0, 158, 1)"></path><path d="M1267 406 a7 7 0 1 0 14 0 a7 7 0 1 0 -14 0zM1379 518 a7 7 0 1 0 14 0 a7 7 0 1 0 -14 0z" fill="rgba(75, 0, 158, 1)"></path><path d="M910 350L882 378L854 378L826 350L826 266L854 238L938 238" stroke-width="4.67" stroke="rgba(75, 0, 158, 1)"></path><path d="M903 350 a7 7 0 1 0 14 0 a7 7 0 1 0 -14 0zM931 238 a7 7 0 1 0 14 0 a7 7 0 1 0 -14 0z" fill="rgba(75, 0, 158, 1)"></path><path d="M910 490L882 518L882 546" stroke-width="4.67" stroke="rgba(75, 0, 158, 1)"></path><path d="M903 490 a7 7 0 1 0 14 0 a7 7 0 1 0 -14 0zM875 546 a7 7 0 1 0 14 0 a7 7 0 1 0 -14 0z" fill="rgba(75, 0, 158, 1)"></path><path d="M294 322L294 406L378 490" stroke-width="4.67" stroke="rgba(75, 0, 158, 1)"></path><path d="M287 322 a7 7 0 1 0 14 0 a7 7 0 1 0 -14 0zM371 490 a7 7 0 1 0 14 0 a7 7 0 1 0 -14 0z" fill="rgba(75, 0, 158, 1)"></path><path d="M238 322L294 266" stroke-width="4.67" stroke="rgba(75, 0, 158, 1)"></path><path d="M231 322 a7 7 0 1 0 14 0 a7 7 0 1 0 -14 0zM287 266 a7 7 0 1 0 14 0 a7 7 0 1 0 -14 0z" fill="rgba(75, 0, 158, 1)"></path><path d="M462 70L434 42L406 42L350 98" stroke-width="4.67" stroke="rgba(75, 0, 158, 1)"></path><path d="M455 70 a7 7 0 1 0 14 0 a7 7 0 1 0 -14 0zM343 98 a7 7 0 1 0 14 0 a7 7 0 1 0 -14 0z" fill="rgba(75, 0, 158, 1)"></path><path d="M210 406L98 518" stroke-width="4.67" stroke="rgba(75, 0, 158, 1)"></path><path d="M203 406 a7 7 0 1 0 14 0 a7 7 0 1 0 -14 0zM91 518 a7 7 0 1 0 14 0 a7 7 0 1 0 -14 0z" fill="rgba(75, 0, 158, 1)"></path><path d="M98 406L98 490" stroke-width="4.67" stroke="rgba(75, 0, 158, 1)"></path><path d="M91 406 a7 7 0 1 0 14 0 a7 7 0 1 0 -14 0zM91 490 a7 7 0 1 0 14 0 a7 7 0 1 0 -14 0z" fill="rgba(75, 0, 158, 1)"></path><path d="M14 182L14 126" stroke-width="4.67" stroke="rgba(75, 0, 158, 1)"></path><path d="M7 182 a7 7 0 1 0 14 0 a7 7 0 1 0 -14 0zM7 126 a7 7 0 1 0 14 0 a7 7 0 1 0 -14 0z" fill="rgba(75, 0, 158, 1)"></path><path d="M770 322L742 350L742 378L770 406L826 406" stroke-width="4.67" stroke="rgba(75, 0, 158, 1)"></path><path d="M763 322 a7 7 0 1 0 14 0 a7 7 0 1 0 -14 0zM819 406 a7 7 0 1 0 14 0 a7 7 0 1 0 -14 0z" fill="rgba(75, 0, 158, 1)"></path><path d="M14 350L42 378L70 378L126 322L154 322L210 378" stroke-width="4.67" stroke="rgba(75, 0, 158, 1)"></path><path d="M7 350 a7 7 0 1 0 14 0 a7 7 0 1 0 -14 0zM203 378 a7 7 0 1 0 14 0 a7 7 0 1 0 -14 0z" fill="rgba(75, 0, 158, 1)"></path><path d="M1218 42L1162 42L1134 14L882 14" stroke-width="4.67" stroke="rgba(75, 0, 158, 1)"></path><path d="M1211 42 a7 7 0 1 0 14 0 a7 7 0 1 0 -14 0zM875 14 a7 7 0 1 0 14 0 a7 7 0 1 0 -14 0z" fill="rgba(75, 0, 158, 1)"></path><path d="M1274 266L1386 154" stroke-width="4.67" stroke="rgba(75, 0, 158, 1)"></path><path d="M1267 266 a7 7 0 1 0 14 0 a7 7 0 1 0 -14 0zM1379 154 a7 7 0 1 0 14 0 a7 7 0 1 0 -14 0z" fill="rgba(75, 0, 158, 1)"></path><path d="M1330 490L1246 490" stroke-width="4.67" stroke="rgba(75, 0, 158, 1)"></path><path d="M1323 490 a7 7 0 1 0 14 0 a7 7 0 1 0 -14 0zM1239 490 a7 7 0 1 0 14 0 a7 7 0 1 0 -14 0z" fill="rgba(75, 0, 158, 1)"></path><path d="M182 490L210 462L322 462L350 490L350 518" stroke-width="4.67" stroke="rgba(75, 0, 158, 1)"></path><path d="M175 490 a7 7 0 1 0 14 0 a7 7 0 1 0 -14 0zM343 518 a7 7 0 1 0 14 0 a7 7 0 1 0 -14 0z" fill="rgba(75, 0, 158, 1)"></path><path d="M42 434L42 518" stroke-width="4.67" stroke="rgba(75, 0, 158, 1)"></path><path d="M35 434 a7 7 0 1 0 14 0 a7 7 0 1 0 -14 0zM35 518 a7 7 0 1 0 14 0 a7 7 0 1 0 -14 0z" fill="rgba(75, 0, 158, 1)"></path><path d="M854 70L826 98L826 126" stroke-width="4.67" stroke="rgba(75, 0, 158, 1)"></path><path d="M847 70 a7 7 0 1 0 14 0 a7 7 0 1 0 -14 0zM819 126 a7 7 0 1 0 14 0 a7 7 0 1 0 -14 0z" fill="rgba(75, 0, 158, 1)"></path><path d="M1162 490L1106 434L1022 434L910 546" stroke-width="4.67" stroke="rgba(75, 0, 158, 1)"></path><path d="M1155 490 a7 7 0 1 0 14 0 a7 7 0 1 0 -14 0zM903 546 a7 7 0 1 0 14 0 a7 7 0 1 0 -14 0z" fill="rgba(75, 0, 158, 1)"></path><path d="M1246 406L1274 434L1302 434" stroke-width="4.67" stroke="rgba(75, 0, 158, 1)"></path><path d="M1239 406 a7 7 0 1 0 14 0 a7 7 0 1 0 -14 0zM1295 434 a7 7 0 1 0 14 0 a7 7 0 1 0 -14 0z" fill="rgba(75, 0, 158, 1)"></path><path d="M1302 322L1302 378L1330 406" stroke-width="4.67" stroke="rgba(75, 0, 158, 1)"></path><path d="M1295 322 a7 7 0 1 0 14 0 a7 7 0 1 0 -14 0zM1323 406 a7 7 0 1 0 14 0 a7 7 0 1 0 -14 0z" fill="rgba(75, 0, 158, 1)"></path><path d="M1330 42L1386 42" stroke-width="4.67" stroke="rgba(75, 0, 158, 1)"></path><path d="M1323 42 a7 7 0 1 0 14 0 a7 7 0 1 0 -14 0zM1379 42 a7 7 0 1 0 14 0 a7 7 0 1 0 -14 0z" fill="rgba(75, 0, 158, 1)"></path><path d="M70 98L42 70L42 42" stroke-width="4.67" stroke="rgba(75, 0, 158, 1)"></path><path d="M63 98 a7 7 0 1 0 14 0 a7 7 0 1 0 -14 0zM35 42 a7 7 0 1 0 14 0 a7 7 0 1 0 -14 0z" fill="rgba(75, 0, 158, 1)"></path><path d="M14 406L14 518" stroke-width="4.67" stroke="rgba(75, 0, 158, 1)"></path><path d="M7 406 a7 7 0 1 0 14 0 a7 7 0 1 0 -14 0zM7 518 a7 7 0 1 0 14 0 a7 7 0 1 0 -14 0z" fill="rgba(75, 0, 158, 1)"></path><path d="M1302 14L1302 42L1358 98" stroke-width="4.67" stroke="rgba(75, 0, 158, 1)"></path><path d="M1295 14 a7 7 0 1 0 14 0 a7 7 0 1 0 -14 0zM1351 98 a7 7 0 1 0 14 0 a7 7 0 1 0 -14 0z" fill="rgba(75, 0, 158, 1)"></path><path d="M546 350L518 322L518 238" stroke-width="4.67" stroke="rgba(75, 0, 158, 1)"></path><path d="M539 350 a7 7 0 1 0 14 0 a7 7 0 1 0 -14 0zM511 238 a7 7 0 1 0 14 0 a7 7 0 1 0 -14 0z" fill="rgba(75, 0, 158, 1)"></path><path d="M1358 238L1330 238L1246 322" stroke-width="4.67" stroke="rgba(75, 0, 158, 1)"></path><path d="M1351 238 a7 7 0 1 0 14 0 a7 7 0 1 0 -14 0zM1239 322 a7 7 0 1 0 14 0 a7 7 0 1 0 -14 0z" fill="rgba(75, 0, 158, 1)"></path><path d="M1246 14L1246 42L1330 126" stroke-width="4.67" stroke="rgba(75, 0, 158, 1)"></path><path d="M1239 14 a7 7 0 1 0 14 0 a7 7 0 1 0 -14 0zM1323 126 a7 7 0 1 0 14 0 a7 7 0 1 0 -14 0z" fill="rgba(75, 0, 158, 1)"></path><path d="M182 378L182 406L126 462" stroke-width="4.67" stroke="rgba(75, 0, 158, 1)"></path><path d="M175 378 a7 7 0 1 0 14 0 a7 7 0 1 0 -14 0zM119 462 a7 7 0 1 0 14 0 a7 7 0 1 0 -14 0z" fill="rgba(75, 0, 158, 1)"></path><path d="M1190 406L1218 434L1246 434" stroke-width="4.67" stroke="rgba(75, 0, 158, 1)"></path><path d="M1183 406 a7 7 0 1 0 14 0 a7 7 0 1 0 -14 0zM1239 434 a7 7 0 1 0 14 0 a7 7 0 1 0 -14 0z" fill="rgba(75, 0, 158, 1)"></path><path d="M434 70L434 98L406 126L378 126" stroke-width="4.67" stroke="rgba(75, 0, 158, 1)"></path><path d="M427 70 a7 7 0 1 0 14 0 a7 7 0 1 0 -14 0zM371 126 a7 7 0 1 0 14 0 a7 7 0 1 0 -14 0z" fill="rgba(75, 0, 158, 1)"></path><path d="M938 546L1022 462L1106 462L1190 546L1246 546" stroke-width="4.67" stroke="rgba(75, 0, 158, 1)"></path><path d="M931 546 a7 7 0 1 0 14 0 a7 7 0 1 0 -14 0zM1239 546 a7 7 0 1 0 14 0 a7 7 0 1 0 -14 0z" fill="rgba(75, 0, 158, 1)"></path><path d="M1386 266L1386 182" stroke-width="4.67" stroke="rgba(75, 0, 158, 1)"></path><path d="M1379 266 a7 7 0 1 0 14 0 a7 7 0 1 0 -14 0zM1379 182 a7 7 0 1 0 14 0 a7 7 0 1 0 -14 0z" fill="rgba(75, 0, 158, 1)"></path><path d="M1330 14L1386 14" stroke-width="4.67" stroke="rgba(75, 0, 158, 1)"></path><path d="M1323 14 a7 7 0 1 0 14 0 a7 7 0 1 0 -14 0zM1379 14 a7 7 0 1 0 14 0 a7 7 0 1 0 -14 0z" fill="rgba(75, 0, 158, 1)"></path><path d="M1106 518L1134 518L1162 546" stroke-width="4.67" stroke="rgba(75, 0, 158, 1)"></path><path d="M1099 518 a7 7 0 1 0 14 0 a7 7 0 1 0 -14 0zM1155 546 a7 7 0 1 0 14 0 a7 7 0 1 0 -14 0z" fill="rgba(75, 0, 158, 1)"></path><path d="M910 322L910 266" stroke-width="4.67" stroke="rgba(75, 0, 158, 1)"></path><path d="M903 322 a7 7 0 1 0 14 0 a7 7 0 1 0 -14 0zM903 266 a7 7 0 1 0 14 0 a7 7 0 1 0 -14 0z" fill="rgba(75, 0, 158, 1)"></path><path d="M602 266L546 322" stroke-width="4.67" stroke="rgba(75, 0, 158, 1)"></path><path d="M595 266 a7 7 0 1 0 14 0 a7 7 0 1 0 -14 0zM539 322 a7 7 0 1 0 14 0 a7 7 0 1 0 -14 0z" fill="rgba(75, 0, 158, 1)"></path><path d="M630 266L574 210" stroke-width="4.67" stroke="rgba(75, 0, 158, 1)"></path><path d="M623 266 a7 7 0 1 0 14 0 a7 7 0 1 0 -14 0zM567 210 a7 7 0 1 0 14 0 a7 7 0 1 0 -14 0z" fill="rgba(75, 0, 158, 1)"></path><path d="M238 294L266 266L266 182L210 126L210 98L238 70L266 70L322 126" stroke-width="4.67" stroke="rgba(75, 0, 158, 1)"></path><path d="M231 294 a7 7 0 1 0 14 0 a7 7 0 1 0 -14 0zM315 126 a7 7 0 1 0 14 0 a7 7 0 1 0 -14 0z" fill="rgba(75, 0, 158, 1)"></path><path d="M882 322L882 266" stroke-width="4.67" stroke="rgba(75, 0, 158, 1)"></path><path d="M875 322 a7 7 0 1 0 14 0 a7 7 0 1 0 -14 0zM875 266 a7 7 0 1 0 14 0 a7 7 0 1 0 -14 0z" fill="rgba(75, 0, 158, 1)"></path><path d="M1358 294L1358 350L1386 378" stroke-width="4.67" stroke="rgba(75, 0, 158, 1)"></path><path d="M1351 294 a7 7 0 1 0 14 0 a7 7 0 1 0 -14 0zM1379 378 a7 7 0 1 0 14 0 a7 7 0 1 0 -14 0z" fill="rgba(75, 0, 158, 1)"></path><path d="M1022 518L994 518L966 546" stroke-width="4.67" stroke="rgba(75, 0, 158, 1)"></path><path d="M1015 518 a7 7 0 1 0 14 0 a7 7 0 1 0 -14 0zM959 546 a7 7 0 1 0 14 0 a7 7 0 1 0 -14 0z" fill="rgba(75, 0, 158, 1)"></path><path d="M182 154L238 210" stroke-width="4.67" stroke="rgba(75, 0, 158, 1)"></path><path d="M175 154 a7 7 0 1 0 14 0 a7 7 0 1 0 -14 0zM231 210 a7 7 0 1 0 14 0 a7 7 0 1 0 -14 0z" fill="rgba(75, 0, 158, 1)"></path><path d="M154 98L126 126L98 126" stroke-width="4.67" stroke="rgba(75, 0, 158, 1)"></path><path d="M147 98 a7 7 0 1 0 14 0 a7 7 0 1 0 -14 0zM91 126 a7 7 0 1 0 14 0 a7 7 0 1 0 -14 0z" fill="rgba(75, 0, 158, 1)"></path><path d="M14 266L42 238L70 238" stroke-width="4.67" stroke="rgba(75, 0, 158, 1)"></path><path d="M7 266 a7 7 0 1 0 14 0 a7 7 0 1 0 -14 0zM63 238 a7 7 0 1 0 14 0 a7 7 0 1 0 -14 0z" fill="rgba(75, 0, 158, 1)"></path><path d="M462 126L546 42L602 42" stroke-width="4.67" stroke="rgba(75, 0, 158, 1)"></path><path d="M455 126 a7 7 0 1 0 14 0 a7 7 0 1 0 -14 0zM595 42 a7 7 0 1 0 14 0 a7 7 0 1 0 -14 0z" fill="rgba(75, 0, 158, 1)"></path><path d="M714 406L770 462" stroke-width="4.67" stroke="rgba(75, 0, 158, 1)"></path><path d="M707 406 a7 7 0 1 0 14 0 a7 7 0 1 0 -14 0zM763 462 a7 7 0 1 0 14 0 a7 7 0 1 0 -14 0z" fill="rgba(75, 0, 158, 1)"></path><path d="M1218 98L1218 238" stroke-width="4.67" stroke="rgba(75, 0, 158, 1)"></path><path d="M1211 98 a7 7 0 1 0 14 0 a7 7 0 1 0 -14 0zM1211 238 a7 7 0 1 0 14 0 a7 7 0 1 0 -14 0z" fill="rgba(75, 0, 158, 1)"></path><path d="M882 490L994 378" stroke-width="4.67" stroke="rgba(75, 0, 158, 1)"></path><path d="M875 490 a7 7 0 1 0 14 0 a7 7 0 1 0 -14 0zM987 378 a7 7 0 1 0 14 0 a7 7 0 1 0 -14 0z" fill="rgba(75, 0, 158, 1)"></path><path d="M350 350L350 322L322 294L294 294" stroke-width="4.67" stroke="rgba(75, 0, 158, 1)"></path><path d="M343 350 a7 7 0 1 0 14 0 a7 7 0 1 0 -14 0zM287 294 a7 7 0 1 0 14 0 a7 7 0 1 0 -14 0z" fill="rgba(75, 0, 158, 1)"></path><path d="M1134 546L994 546" stroke-width="4.67" stroke="rgba(75, 0, 158, 1)"></path><path d="M1127 546 a7 7 0 1 0 14 0 a7 7 0 1 0 -14 0zM987 546 a7 7 0 1 0 14 0 a7 7 0 1 0 -14 0z" fill="rgba(75, 0, 158, 1)"></path><path d="M686 322L658 294L602 294L574 322L574 350L518 406" stroke-width="4.67" stroke="rgba(75, 0, 158, 1)"></path><path d="M679 322 a7 7 0 1 0 14 0 a7 7 0 1 0 -14 0zM511 406 a7 7 0 1 0 14 0 a7 7 0 1 0 -14 0z" fill="rgba(75, 0, 158, 1)"></path><path d="M294 126L238 126" stroke-width="4.67" stroke="rgba(75, 0, 158, 1)"></path><path d="M287 126 a7 7 0 1 0 14 0 a7 7 0 1 0 -14 0zM231 126 a7 7 0 1 0 14 0 a7 7 0 1 0 -14 0z" fill="rgba(75, 0, 158, 1)"></path><path d="M182 518L322 518" stroke-width="4.67" stroke="rgba(75, 0, 158, 1)"></path><path d="M175 518 a7 7 0 1 0 14 0 a7 7 0 1 0 -14 0zM315 518 a7 7 0 1 0 14 0 a7 7 0 1 0 -14 0z" fill="rgba(75, 0, 158, 1)"></path><path d="M714 546L826 546" stroke-width="4.67" stroke="rgba(75, 0, 158, 1)"></path><path d="M707 546 a7 7 0 1 0 14 0 a7 7 0 1 0 -14 0zM819 546 a7 7 0 1 0 14 0 a7 7 0 1 0 -14 0z" fill="rgba(75, 0, 158, 1)"></path><path d="M14 294L70 350" stroke-width="4.67" stroke="rgba(75, 0, 158, 1)"></path><path d="M7 294 a7 7 0 1 0 14 0 a7 7 0 1 0 -14 0zM63 350 a7 7 0 1 0 14 0 a7 7 0 1 0 -14 0z" fill="rgba(75, 0, 158, 1)"></path><path d="M1078 126L1050 126L1022 154" stroke-width="4.67" stroke="rgba(75, 0, 158, 1)"></path><path d="M1071 126 a7 7 0 1 0 14 0 a7 7 0 1 0 -14 0zM1015 154 a7 7 0 1 0 14 0 a7 7 0 1 0 -14 0z" fill="rgba(75, 0, 158, 1)"></path><path d="M294 210L378 210" stroke-width="4.67" stroke="rgba(75, 0, 158, 1)"></path><path d="M287 210 a7 7 0 1 0 14 0 a7 7 0 1 0 -14 0zM371 210 a7 7 0 1 0 14 0 a7 7 0 1 0 -14 0z" fill="rgba(75, 0, 158, 1)"></path><path d="M98 14L154 14" stroke-width="4.67" stroke="rgba(75, 0, 158, 1)"></path><path d="M91 14 a7 7 0 1 0 14 0 a7 7 0 1 0 -14 0zM147 14 a7 7 0 1 0 14 0 a7 7 0 1 0 -14 0z" fill="rgba(75, 0, 158, 1)"></path><path d="M154 350L126 378L126 434" stroke-width="4.67" stroke="rgba(75, 0, 158, 1)"></path><path d="M147 350 a7 7 0 1 0 14 0 a7 7 0 1 0 -14 0zM119 434 a7 7 0 1 0 14 0 a7 7 0 1 0 -14 0z" fill="rgba(75, 0, 158, 1)"></path><path d="M686 210L714 182L742 182" stroke-width="4.67" stroke="rgba(75, 0, 158, 1)"></path><path d="M679 210 a7 7 0 1 0 14 0 a7 7 0 1 0 -14 0zM735 182 a7 7 0 1 0 14 0 a7 7 0 1 0 -14 0z" fill="rgba(75, 0, 158, 1)"></path><path d="M98 294L42 294" stroke-width="4.67" stroke="rgba(75, 0, 158, 1)"></path><path d="M91 294 a7 7 0 1 0 14 0 a7 7 0 1 0 -14 0zM35 294 a7 7 0 1 0 14 0 a7 7 0 1 0 -14 0z" fill="rgba(75, 0, 158, 1)"></path><path d="M1302 294L1330 322L1330 350" stroke-width="4.67" stroke="rgba(75, 0, 158, 1)"></path><path d="M1295 294 a7 7 0 1 0 14 0 a7 7 0 1 0 -14 0zM1323 350 a7 7 0 1 0 14 0 a7 7 0 1 0 -14 0z" fill="rgba(75, 0, 158, 1)"></path><path d="M686 238L742 238" stroke-width="4.67" stroke="rgba(75, 0, 158, 1)"></path><path d="M679 238 a7 7 0 1 0 14 0 a7 7 0 1 0 -14 0zM735 238 a7 7 0 1 0 14 0 a7 7 0 1 0 -14 0z" fill="rgba(75, 0, 158, 1)"></path><path d="M826 70L742 70" stroke-width="4.67" stroke="rgba(75, 0, 158, 1)"></path><path d="M819 70 a7 7 0 1 0 14 0 a7 7 0 1 0 -14 0zM735 70 a7 7 0 1 0 14 0 a7 7 0 1 0 -14 0z" fill="rgba(75, 0, 158, 1)"></path><path d="M1162 182L1106 182" stroke-width="4.67" stroke="rgba(75, 0, 158, 1)"></path><path d="M1155 182 a7 7 0 1 0 14 0 a7 7 0 1 0 -14 0zM1099 182 a7 7 0 1 0 14 0 a7 7 0 1 0 -14 0z" fill="rgba(75, 0, 158, 1)"></path><path d="M714 462L686 434L658 434" stroke-width="4.67" stroke="rgba(75, 0, 158, 1)"></path><path d="M707 462 a7 7 0 1 0 14 0 a7 7 0 1 0 -14 0zM651 434 a7 7 0 1 0 14 0 a7 7 0 1 0 -14 0z" fill="rgba(75, 0, 158, 1)"></path><path d="M1274 154L1274 182L1246 210" stroke-width="4.67" stroke="rgba(75, 0, 158, 1)"></path><path d="M1267 154 a7 7 0 1 0 14 0 a7 7 0 1 0 -14 0zM1239 210 a7 7 0 1 0 14 0 a7 7 0 1 0 -14 0z" fill="rgba(75, 0, 158, 1)"></path><path d="M938 322L938 266" stroke-width="4.67" stroke="rgba(75, 0, 158, 1)"></path><path d="M931 322 a7 7 0 1 0 14 0 a7 7 0 1 0 -14 0zM931 266 a7 7 0 1 0 14 0 a7 7 0 1 0 -14 0z" fill="rgba(75, 0, 158, 1)"></path><path d="M574 70L546 98L518 98" stroke-width="4.67" stroke="rgba(75, 0, 158, 1)"></path><path d="M567 70 a7 7 0 1 0 14 0 a7 7 0 1 0 -14 0zM511 98 a7 7 0 1 0 14 0 a7 7 0 1 0 -14 0z" fill="rgba(75, 0, 158, 1)"></path></g></g><defs><mask id="SvgjsMask2766"><rect width="1440" height="560" fill="#ffffff"></rect></mask><linearGradient x1="100%" y1="50%" x2="0%" y2="50%" gradientUnits="userSpaceOnUse" id="SvgjsLinearGradient2767"><stop stop-color="rgba(0, 0, 0, 0.83)" offset="0"></stop><stop stop-color="rgba(16, 0, 66, 1)" offset="1"></stop></linearGradient><mask id="SvgjsMask2768"><rect width="1440" height="560" fill="white"></rect><path d="M1102.5 406 a3.5 3.5 0 1 0 7 0 a3.5 3.5 0 1 0 -7 0zM1438.5 14 a3.5 3.5 0 1 0 7 0 a3.5 3.5 0 1 0 -7 0z" fill="black"></path><path d="M318.5 14 a3.5 3.5 0 1 0 7 0 a3.5 3.5 0 1 0 -7 0zM850.5 14 a3.5 3.5 0 1 0 7 0 a3.5 3.5 0 1 0 -7 0z" fill="black"></path><path d="M206.5 266 a3.5 3.5 0 1 0 7 0 a3.5 3.5 0 1 0 -7 0zM10.5 14 a3.5 3.5 0 1 0 7 0 a3.5 3.5 0 1 0 -7 0z" fill="black"></path><path d="M682.5 98 a3.5 3.5 0 1 0 7 0 a3.5 3.5 0 1 0 -7 0zM1074.5 406 a3.5 3.5 0 1 0 7 0 a3.5 3.5 0 1 0 -7 0z" fill="black"></path><path d="M1382.5 462 a3.5 3.5 0 1 0 7 0 a3.5 3.5 0 1 0 -7 0zM1438.5 98 a3.5 3.5 0 1 0 7 0 a3.5 3.5 0 1 0 -7 0z" fill="black"></path><path d="M290.5 238 a3.5 3.5 0 1 0 7 0 a3.5 3.5 0 1 0 -7 0zM710.5 42 a3.5 3.5 0 1 0 7 0 a3.5 3.5 0 1 0 -7 0z" fill="black"></path><path d="M206.5 322 a3.5 3.5 0 1 0 7 0 a3.5 3.5 0 1 0 -7 0zM10.5 98 a3.5 3.5 0 1 0 7 0 a3.5 3.5 0 1 0 -7 0z" fill="black"></path><path d="M990.5 98 a3.5 3.5 0 1 0 7 0 a3.5 3.5 0 1 0 -7 0zM1410.5 14 a3.5 3.5 0 1 0 7 0 a3.5 3.5 0 1 0 -7 0z" fill="black"></path><path d="M430.5 210 a3.5 3.5 0 1 0 7 0 a3.5 3.5 0 1 0 -7 0zM262.5 14 a3.5 3.5 0 1 0 7 0 a3.5 3.5 0 1 0 -7 0z" fill="black"></path><path d="M766.5 182 a3.5 3.5 0 1 0 7 0 a3.5 3.5 0 1 0 -7 0zM318.5 266 a3.5 3.5 0 1 0 7 0 a3.5 3.5 0 1 0 -7 0z" fill="black"></path><path d="M906.5 406 a3.5 3.5 0 1 0 7 0 a3.5 3.5 0 1 0 -7 0zM374.5 518 a3.5 3.5 0 1 0 7 0 a3.5 3.5 0 1 0 -7 0z" fill="black"></path><path d="M1214.5 322 a3.5 3.5 0 1 0 7 0 a3.5 3.5 0 1 0 -7 0zM1438.5 518 a3.5 3.5 0 1 0 7 0 a3.5 3.5 0 1 0 -7 0z" fill="black"></path><path d="M1186.5 210 a3.5 3.5 0 1 0 7 0 a3.5 3.5 0 1 0 -7 0zM1186.5 266 a3.5 3.5 0 1 0 7 0 a3.5 3.5 0 1 0 -7 0z" fill="black"></path><path d="M542.5 210 a3.5 3.5 0 1 0 7 0 a3.5 3.5 0 1 0 -7 0zM682.5 70 a3.5 3.5 0 1 0 7 0 a3.5 3.5 0 1 0 -7 0z" fill="black"></path><path d="M458.5 98 a3.5 3.5 0 1 0 7 0 a3.5 3.5 0 1 0 -7 0zM402.5 154 a3.5 3.5 0 1 0 7 0 a3.5 3.5 0 1 0 -7 0z" fill="black"></path><path d="M262.5 154 a3.5 3.5 0 1 0 7 0 a3.5 3.5 0 1 0 -7 0zM402.5 210 a3.5 3.5 0 1 0 7 0 a3.5 3.5 0 1 0 -7 0z" fill="black"></path><path d="M1382.5 406 a3.5 3.5 0 1 0 7 0 a3.5 3.5 0 1 0 -7 0zM1410.5 126 a3.5 3.5 0 1 0 7 0 a3.5 3.5 0 1 0 -7 0z" fill="black"></path><path d="M822.5 378 a3.5 3.5 0 1 0 7 0 a3.5 3.5 0 1 0 -7 0zM598.5 490 a3.5 3.5 0 1 0 7 0 a3.5 3.5 0 1 0 -7 0z" fill="black"></path><path d="M626.5 154 a3.5 3.5 0 1 0 7 0 a3.5 3.5 0 1 0 -7 0zM1018.5 378 a3.5 3.5 0 1 0 7 0 a3.5 3.5 0 1 0 -7 0z" fill="black"></path><path d="M10.5 238 a3.5 3.5 0 1 0 7 0 a3.5 3.5 0 1 0 -7 0zM66.5 182 a3.5 3.5 0 1 0 7 0 a3.5 3.5 0 1 0 -7 0z" fill="black"></path><path d="M122.5 98 a3.5 3.5 0 1 0 7 0 a3.5 3.5 0 1 0 -7 0zM38.5 14 a3.5 3.5 0 1 0 7 0 a3.5 3.5 0 1 0 -7 0z" fill="black"></path><path d="M934.5 378 a3.5 3.5 0 1 0 7 0 a3.5 3.5 0 1 0 -7 0zM794.5 182 a3.5 3.5 0 1 0 7 0 a3.5 3.5 0 1 0 -7 0z" fill="black"></path><path d="M1270.5 546 a3.5 3.5 0 1 0 7 0 a3.5 3.5 0 1 0 -7 0zM1130.5 406 a3.5 3.5 0 1 0 7 0 a3.5 3.5 0 1 0 -7 0z" fill="black"></path><path d="M1270.5 518 a3.5 3.5 0 1 0 7 0 a3.5 3.5 0 1 0 -7 0zM1438.5 546 a3.5 3.5 0 1 0 7 0 a3.5 3.5 0 1 0 -7 0z" fill="black"></path><path d="M318.5 378 a3.5 3.5 0 1 0 7 0 a3.5 3.5 0 1 0 -7 0zM486.5 462 a3.5 3.5 0 1 0 7 0 a3.5 3.5 0 1 0 -7 0z" fill="black"></path><path d="M66.5 266 a3.5 3.5 0 1 0 7 0 a3.5 3.5 0 1 0 -7 0zM122.5 238 a3.5 3.5 0 1 0 7 0 a3.5 3.5 0 1 0 -7 0z" fill="black"></path><path d="M290.5 434 a3.5 3.5 0 1 0 7 0 a3.5 3.5 0 1 0 -7 0zM122.5 266 a3.5 3.5 0 1 0 7 0 a3.5 3.5 0 1 0 -7 0z" fill="black"></path><path d="M206.5 154 a3.5 3.5 0 1 0 7 0 a3.5 3.5 0 1 0 -7 0zM178.5 14 a3.5 3.5 0 1 0 7 0 a3.5 3.5 0 1 0 -7 0z" fill="black"></path><path d="M906.5 518 a3.5 3.5 0 1 0 7 0 a3.5 3.5 0 1 0 -7 0zM1046.5 266 a3.5 3.5 0 1 0 7 0 a3.5 3.5 0 1 0 -7 0z" fill="black"></path><path d="M458.5 378 a3.5 3.5 0 1 0 7 0 a3.5 3.5 0 1 0 -7 0zM346.5 266 a3.5 3.5 0 1 0 7 0 a3.5 3.5 0 1 0 -7 0z" fill="black"></path><path d="M458.5 266 a3.5 3.5 0 1 0 7 0 a3.5 3.5 0 1 0 -7 0zM430.5 322 a3.5 3.5 0 1 0 7 0 a3.5 3.5 0 1 0 -7 0z" fill="black"></path><path d="M794.5 462 a3.5 3.5 0 1 0 7 0 a3.5 3.5 0 1 0 -7 0zM878.5 406 a3.5 3.5 0 1 0 7 0 a3.5 3.5 0 1 0 -7 0z" fill="black"></path><path d="M1158.5 70 a3.5 3.5 0 1 0 7 0 a3.5 3.5 0 1 0 -7 0zM878.5 42 a3.5 3.5 0 1 0 7 0 a3.5 3.5 0 1 0 -7 0z" fill="black"></path><path d="M654.5 238 a3.5 3.5 0 1 0 7 0 a3.5 3.5 0 1 0 -7 0zM710.5 294 a3.5 3.5 0 1 0 7 0 a3.5 3.5 0 1 0 -7 0z" fill="black"></path><path d="M486.5 518 a3.5 3.5 0 1 0 7 0 a3.5 3.5 0 1 0 -7 0zM10.5 546 a3.5 3.5 0 1 0 7 0 a3.5 3.5 0 1 0 -7 0z" fill="black"></path><path d="M682.5 546 a3.5 3.5 0 1 0 7 0 a3.5 3.5 0 1 0 -7 0zM402.5 546 a3.5 3.5 0 1 0 7 0 a3.5 3.5 0 1 0 -7 0z" fill="black"></path><path d="M122.5 350 a3.5 3.5 0 1 0 7 0 a3.5 3.5 0 1 0 -7 0zM66.5 518 a3.5 3.5 0 1 0 7 0 a3.5 3.5 0 1 0 -7 0z" fill="black"></path><path d="M1242.5 70 a3.5 3.5 0 1 0 7 0 a3.5 3.5 0 1 0 -7 0zM1158.5 266 a3.5 3.5 0 1 0 7 0 a3.5 3.5 0 1 0 -7 0z" fill="black"></path><path d="M458.5 154 a3.5 3.5 0 1 0 7 0 a3.5 3.5 0 1 0 -7 0zM626.5 42 a3.5 3.5 0 1 0 7 0 a3.5 3.5 0 1 0 -7 0z" fill="black"></path><path d="M206.5 70 a3.5 3.5 0 1 0 7 0 a3.5 3.5 0 1 0 -7 0zM234.5 14 a3.5 3.5 0 1 0 7 0 a3.5 3.5 0 1 0 -7 0z" fill="black"></path><path d="M654.5 322 a3.5 3.5 0 1 0 7 0 a3.5 3.5 0 1 0 -7 0zM514.5 210 a3.5 3.5 0 1 0 7 0 a3.5 3.5 0 1 0 -7 0z" fill="black"></path><path d="M1270.5 406 a3.5 3.5 0 1 0 7 0 a3.5 3.5 0 1 0 -7 0zM1382.5 518 a3.5 3.5 0 1 0 7 0 a3.5 3.5 0 1 0 -7 0z" fill="black"></path><path d="M906.5 350 a3.5 3.5 0 1 0 7 0 a3.5 3.5 0 1 0 -7 0zM934.5 238 a3.5 3.5 0 1 0 7 0 a3.5 3.5 0 1 0 -7 0z" fill="black"></path><path d="M906.5 490 a3.5 3.5 0 1 0 7 0 a3.5 3.5 0 1 0 -7 0zM878.5 546 a3.5 3.5 0 1 0 7 0 a3.5 3.5 0 1 0 -7 0z" fill="black"></path><path d="M290.5 322 a3.5 3.5 0 1 0 7 0 a3.5 3.5 0 1 0 -7 0zM374.5 490 a3.5 3.5 0 1 0 7 0 a3.5 3.5 0 1 0 -7 0z" fill="black"></path><path d="M234.5 322 a3.5 3.5 0 1 0 7 0 a3.5 3.5 0 1 0 -7 0zM290.5 266 a3.5 3.5 0 1 0 7 0 a3.5 3.5 0 1 0 -7 0z" fill="black"></path><path d="M458.5 70 a3.5 3.5 0 1 0 7 0 a3.5 3.5 0 1 0 -7 0zM346.5 98 a3.5 3.5 0 1 0 7 0 a3.5 3.5 0 1 0 -7 0z" fill="black"></path><path d="M206.5 406 a3.5 3.5 0 1 0 7 0 a3.5 3.5 0 1 0 -7 0zM94.5 518 a3.5 3.5 0 1 0 7 0 a3.5 3.5 0 1 0 -7 0z" fill="black"></path><path d="M94.5 406 a3.5 3.5 0 1 0 7 0 a3.5 3.5 0 1 0 -7 0zM94.5 490 a3.5 3.5 0 1 0 7 0 a3.5 3.5 0 1 0 -7 0z" fill="black"></path><path d="M10.5 182 a3.5 3.5 0 1 0 7 0 a3.5 3.5 0 1 0 -7 0zM10.5 126 a3.5 3.5 0 1 0 7 0 a3.5 3.5 0 1 0 -7 0z" fill="black"></path><path d="M766.5 322 a3.5 3.5 0 1 0 7 0 a3.5 3.5 0 1 0 -7 0zM822.5 406 a3.5 3.5 0 1 0 7 0 a3.5 3.5 0 1 0 -7 0z" fill="black"></path><path d="M10.5 350 a3.5 3.5 0 1 0 7 0 a3.5 3.5 0 1 0 -7 0zM206.5 378 a3.5 3.5 0 1 0 7 0 a3.5 3.5 0 1 0 -7 0z" fill="black"></path><path d="M1214.5 42 a3.5 3.5 0 1 0 7 0 a3.5 3.5 0 1 0 -7 0zM878.5 14 a3.5 3.5 0 1 0 7 0 a3.5 3.5 0 1 0 -7 0z" fill="black"></path><path d="M1270.5 266 a3.5 3.5 0 1 0 7 0 a3.5 3.5 0 1 0 -7 0zM1382.5 154 a3.5 3.5 0 1 0 7 0 a3.5 3.5 0 1 0 -7 0z" fill="black"></path><path d="M1326.5 490 a3.5 3.5 0 1 0 7 0 a3.5 3.5 0 1 0 -7 0zM1242.5 490 a3.5 3.5 0 1 0 7 0 a3.5 3.5 0 1 0 -7 0z" fill="black"></path><path d="M178.5 490 a3.5 3.5 0 1 0 7 0 a3.5 3.5 0 1 0 -7 0zM346.5 518 a3.5 3.5 0 1 0 7 0 a3.5 3.5 0 1 0 -7 0z" fill="black"></path><path d="M38.5 434 a3.5 3.5 0 1 0 7 0 a3.5 3.5 0 1 0 -7 0zM38.5 518 a3.5 3.5 0 1 0 7 0 a3.5 3.5 0 1 0 -7 0z" fill="black"></path><path d="M850.5 70 a3.5 3.5 0 1 0 7 0 a3.5 3.5 0 1 0 -7 0zM822.5 126 a3.5 3.5 0 1 0 7 0 a3.5 3.5 0 1 0 -7 0z" fill="black"></path><path d="M1158.5 490 a3.5 3.5 0 1 0 7 0 a3.5 3.5 0 1 0 -7 0zM906.5 546 a3.5 3.5 0 1 0 7 0 a3.5 3.5 0 1 0 -7 0z" fill="black"></path><path d="M1242.5 406 a3.5 3.5 0 1 0 7 0 a3.5 3.5 0 1 0 -7 0zM1298.5 434 a3.5 3.5 0 1 0 7 0 a3.5 3.5 0 1 0 -7 0z" fill="black"></path><path d="M1298.5 322 a3.5 3.5 0 1 0 7 0 a3.5 3.5 0 1 0 -7 0zM1326.5 406 a3.5 3.5 0 1 0 7 0 a3.5 3.5 0 1 0 -7 0z" fill="black"></path><path d="M1326.5 42 a3.5 3.5 0 1 0 7 0 a3.5 3.5 0 1 0 -7 0zM1382.5 42 a3.5 3.5 0 1 0 7 0 a3.5 3.5 0 1 0 -7 0z" fill="black"></path><path d="M66.5 98 a3.5 3.5 0 1 0 7 0 a3.5 3.5 0 1 0 -7 0zM38.5 42 a3.5 3.5 0 1 0 7 0 a3.5 3.5 0 1 0 -7 0z" fill="black"></path><path d="M10.5 406 a3.5 3.5 0 1 0 7 0 a3.5 3.5 0 1 0 -7 0zM10.5 518 a3.5 3.5 0 1 0 7 0 a3.5 3.5 0 1 0 -7 0z" fill="black"></path><path d="M1298.5 14 a3.5 3.5 0 1 0 7 0 a3.5 3.5 0 1 0 -7 0zM1354.5 98 a3.5 3.5 0 1 0 7 0 a3.5 3.5 0 1 0 -7 0z" fill="black"></path><path d="M542.5 350 a3.5 3.5 0 1 0 7 0 a3.5 3.5 0 1 0 -7 0zM514.5 238 a3.5 3.5 0 1 0 7 0 a3.5 3.5 0 1 0 -7 0z" fill="black"></path><path d="M1354.5 238 a3.5 3.5 0 1 0 7 0 a3.5 3.5 0 1 0 -7 0zM1242.5 322 a3.5 3.5 0 1 0 7 0 a3.5 3.5 0 1 0 -7 0z" fill="black"></path><path d="M1242.5 14 a3.5 3.5 0 1 0 7 0 a3.5 3.5 0 1 0 -7 0zM1326.5 126 a3.5 3.5 0 1 0 7 0 a3.5 3.5 0 1 0 -7 0z" fill="black"></path><path d="M178.5 378 a3.5 3.5 0 1 0 7 0 a3.5 3.5 0 1 0 -7 0zM122.5 462 a3.5 3.5 0 1 0 7 0 a3.5 3.5 0 1 0 -7 0z" fill="black"></path><path d="M1186.5 406 a3.5 3.5 0 1 0 7 0 a3.5 3.5 0 1 0 -7 0zM1242.5 434 a3.5 3.5 0 1 0 7 0 a3.5 3.5 0 1 0 -7 0z" fill="black"></path><path d="M430.5 70 a3.5 3.5 0 1 0 7 0 a3.5 3.5 0 1 0 -7 0zM374.5 126 a3.5 3.5 0 1 0 7 0 a3.5 3.5 0 1 0 -7 0z" fill="black"></path><path d="M934.5 546 a3.5 3.5 0 1 0 7 0 a3.5 3.5 0 1 0 -7 0zM1242.5 546 a3.5 3.5 0 1 0 7 0 a3.5 3.5 0 1 0 -7 0z" fill="black"></path><path d="M1382.5 266 a3.5 3.5 0 1 0 7 0 a3.5 3.5 0 1 0 -7 0zM1382.5 182 a3.5 3.5 0 1 0 7 0 a3.5 3.5 0 1 0 -7 0z" fill="black"></path><path d="M1326.5 14 a3.5 3.5 0 1 0 7 0 a3.5 3.5 0 1 0 -7 0zM1382.5 14 a3.5 3.5 0 1 0 7 0 a3.5 3.5 0 1 0 -7 0z" fill="black"></path><path d="M1102.5 518 a3.5 3.5 0 1 0 7 0 a3.5 3.5 0 1 0 -7 0zM1158.5 546 a3.5 3.5 0 1 0 7 0 a3.5 3.5 0 1 0 -7 0z" fill="black"></path><path d="M906.5 322 a3.5 3.5 0 1 0 7 0 a3.5 3.5 0 1 0 -7 0zM906.5 266 a3.5 3.5 0 1 0 7 0 a3.5 3.5 0 1 0 -7 0z" fill="black"></path><path d="M598.5 266 a3.5 3.5 0 1 0 7 0 a3.5 3.5 0 1 0 -7 0zM542.5 322 a3.5 3.5 0 1 0 7 0 a3.5 3.5 0 1 0 -7 0z" fill="black"></path><path d="M626.5 266 a3.5 3.5 0 1 0 7 0 a3.5 3.5 0 1 0 -7 0zM570.5 210 a3.5 3.5 0 1 0 7 0 a3.5 3.5 0 1 0 -7 0z" fill="black"></path><path d="M234.5 294 a3.5 3.5 0 1 0 7 0 a3.5 3.5 0 1 0 -7 0zM318.5 126 a3.5 3.5 0 1 0 7 0 a3.5 3.5 0 1 0 -7 0z" fill="black"></path><path d="M878.5 322 a3.5 3.5 0 1 0 7 0 a3.5 3.5 0 1 0 -7 0zM878.5 266 a3.5 3.5 0 1 0 7 0 a3.5 3.5 0 1 0 -7 0z" fill="black"></path><path d="M1354.5 294 a3.5 3.5 0 1 0 7 0 a3.5 3.5 0 1 0 -7 0zM1382.5 378 a3.5 3.5 0 1 0 7 0 a3.5 3.5 0 1 0 -7 0z" fill="black"></path><path d="M1018.5 518 a3.5 3.5 0 1 0 7 0 a3.5 3.5 0 1 0 -7 0zM962.5 546 a3.5 3.5 0 1 0 7 0 a3.5 3.5 0 1 0 -7 0z" fill="black"></path><path d="M178.5 154 a3.5 3.5 0 1 0 7 0 a3.5 3.5 0 1 0 -7 0zM234.5 210 a3.5 3.5 0 1 0 7 0 a3.5 3.5 0 1 0 -7 0z" fill="black"></path><path d="M150.5 98 a3.5 3.5 0 1 0 7 0 a3.5 3.5 0 1 0 -7 0zM94.5 126 a3.5 3.5 0 1 0 7 0 a3.5 3.5 0 1 0 -7 0z" fill="black"></path><path d="M10.5 266 a3.5 3.5 0 1 0 7 0 a3.5 3.5 0 1 0 -7 0zM66.5 238 a3.5 3.5 0 1 0 7 0 a3.5 3.5 0 1 0 -7 0z" fill="black"></path><path d="M458.5 126 a3.5 3.5 0 1 0 7 0 a3.5 3.5 0 1 0 -7 0zM598.5 42 a3.5 3.5 0 1 0 7 0 a3.5 3.5 0 1 0 -7 0z" fill="black"></path><path d="M710.5 406 a3.5 3.5 0 1 0 7 0 a3.5 3.5 0 1 0 -7 0zM766.5 462 a3.5 3.5 0 1 0 7 0 a3.5 3.5 0 1 0 -7 0z" fill="black"></path><path d="M1214.5 98 a3.5 3.5 0 1 0 7 0 a3.5 3.5 0 1 0 -7 0zM1214.5 238 a3.5 3.5 0 1 0 7 0 a3.5 3.5 0 1 0 -7 0z" fill="black"></path><path d="M878.5 490 a3.5 3.5 0 1 0 7 0 a3.5 3.5 0 1 0 -7 0zM990.5 378 a3.5 3.5 0 1 0 7 0 a3.5 3.5 0 1 0 -7 0z" fill="black"></path><path d="M346.5 350 a3.5 3.5 0 1 0 7 0 a3.5 3.5 0 1 0 -7 0zM290.5 294 a3.5 3.5 0 1 0 7 0 a3.5 3.5 0 1 0 -7 0z" fill="black"></path><path d="M1130.5 546 a3.5 3.5 0 1 0 7 0 a3.5 3.5 0 1 0 -7 0zM990.5 546 a3.5 3.5 0 1 0 7 0 a3.5 3.5 0 1 0 -7 0z" fill="black"></path><path d="M682.5 322 a3.5 3.5 0 1 0 7 0 a3.5 3.5 0 1 0 -7 0zM514.5 406 a3.5 3.5 0 1 0 7 0 a3.5 3.5 0 1 0 -7 0z" fill="black"></path><path d="M290.5 126 a3.5 3.5 0 1 0 7 0 a3.5 3.5 0 1 0 -7 0zM234.5 126 a3.5 3.5 0 1 0 7 0 a3.5 3.5 0 1 0 -7 0z" fill="black"></path><path d="M178.5 518 a3.5 3.5 0 1 0 7 0 a3.5 3.5 0 1 0 -7 0zM318.5 518 a3.5 3.5 0 1 0 7 0 a3.5 3.5 0 1 0 -7 0z" fill="black"></path><path d="M710.5 546 a3.5 3.5 0 1 0 7 0 a3.5 3.5 0 1 0 -7 0zM822.5 546 a3.5 3.5 0 1 0 7 0 a3.5 3.5 0 1 0 -7 0z" fill="black"></path><path d="M10.5 294 a3.5 3.5 0 1 0 7 0 a3.5 3.5 0 1 0 -7 0zM66.5 350 a3.5 3.5 0 1 0 7 0 a3.5 3.5 0 1 0 -7 0z" fill="black"></path><path d="M1074.5 126 a3.5 3.5 0 1 0 7 0 a3.5 3.5 0 1 0 -7 0zM1018.5 154 a3.5 3.5 0 1 0 7 0 a3.5 3.5 0 1 0 -7 0z" fill="black"></path><path d="M290.5 210 a3.5 3.5 0 1 0 7 0 a3.5 3.5 0 1 0 -7 0zM374.5 210 a3.5 3.5 0 1 0 7 0 a3.5 3.5 0 1 0 -7 0z" fill="black"></path><path d="M94.5 14 a3.5 3.5 0 1 0 7 0 a3.5 3.5 0 1 0 -7 0zM150.5 14 a3.5 3.5 0 1 0 7 0 a3.5 3.5 0 1 0 -7 0z" fill="black"></path><path d="M150.5 350 a3.5 3.5 0 1 0 7 0 a3.5 3.5 0 1 0 -7 0zM122.5 434 a3.5 3.5 0 1 0 7 0 a3.5 3.5 0 1 0 -7 0z" fill="black"></path><path d="M682.5 210 a3.5 3.5 0 1 0 7 0 a3.5 3.5 0 1 0 -7 0zM738.5 182 a3.5 3.5 0 1 0 7 0 a3.5 3.5 0 1 0 -7 0z" fill="black"></path><path d="M94.5 294 a3.5 3.5 0 1 0 7 0 a3.5 3.5 0 1 0 -7 0zM38.5 294 a3.5 3.5 0 1 0 7 0 a3.5 3.5 0 1 0 -7 0z" fill="black"></path><path d="M1298.5 294 a3.5 3.5 0 1 0 7 0 a3.5 3.5 0 1 0 -7 0zM1326.5 350 a3.5 3.5 0 1 0 7 0 a3.5 3.5 0 1 0 -7 0z" fill="black"></path><path d="M682.5 238 a3.5 3.5 0 1 0 7 0 a3.5 3.5 0 1 0 -7 0zM738.5 238 a3.5 3.5 0 1 0 7 0 a3.5 3.5 0 1 0 -7 0z" fill="black"></path><path d="M822.5 70 a3.5 3.5 0 1 0 7 0 a3.5 3.5 0 1 0 -7 0zM738.5 70 a3.5 3.5 0 1 0 7 0 a3.5 3.5 0 1 0 -7 0z" fill="black"></path><path d="M1158.5 182 a3.5 3.5 0 1 0 7 0 a3.5 3.5 0 1 0 -7 0zM1102.5 182 a3.5 3.5 0 1 0 7 0 a3.5 3.5 0 1 0 -7 0z" fill="black"></path><path d="M710.5 462 a3.5 3.5 0 1 0 7 0 a3.5 3.5 0 1 0 -7 0zM654.5 434 a3.5 3.5 0 1 0 7 0 a3.5 3.5 0 1 0 -7 0z" fill="black"></path><path d="M1270.5 154 a3.5 3.5 0 1 0 7 0 a3.5 3.5 0 1 0 -7 0zM1242.5 210 a3.5 3.5 0 1 0 7 0 a3.5 3.5 0 1 0 -7 0z" fill="black"></path><path d="M934.5 322 a3.5 3.5 0 1 0 7 0 a3.5 3.5 0 1 0 -7 0zM934.5 266 a3.5 3.5 0 1 0 7 0 a3.5 3.5 0 1 0 -7 0z" fill="black"></path><path d="M570.5 70 a3.5 3.5 0 1 0 7 0 a3.5 3.5 0 1 0 -7 0zM514.5 98 a3.5 3.5 0 1 0 7 0 a3.5 3.5 0 1 0 -7 0z" fill="black"></path></mask></defs></svg>